<svg width="42" height="43" viewBox="0 0 42 43" fill="none" xmlns="http://www.w3.org/2000/svg">
<rect width="41.9995" height="41.9994" transform="translate(0 0.460571)" fill="white"/>
<path fill-rule="evenodd" clip-rule="evenodd" d="M31.5195 21.6994C31.5195 20.9535 31.4512 20.2362 31.3243 19.5477H21.2144V23.6169H26.9915C26.7426 24.9318 25.9864 26.046 24.8495 26.7919V29.4314H28.3187C30.3484 27.6 31.5195 24.9032 31.5195 21.6994Z" fill="#4285F4"/>
<path fill-rule="evenodd" clip-rule="evenodd" d="M21.2144 31.98C24.1127 31.98 26.5426 31.0381 28.3187 29.4314L24.8495 26.7919C23.8883 27.4231 22.6587 27.796 21.2144 27.796C18.4186 27.796 16.0521 25.9455 15.208 23.459H11.6218V26.1846C13.3881 29.6226 17.0182 31.98 21.2144 31.98Z" fill="#34A853"/>
<path fill-rule="evenodd" clip-rule="evenodd" d="M15.208 23.459C14.9933 22.8278 14.8714 22.1537 14.8714 21.4603C14.8714 20.767 14.9933 20.0928 15.208 19.4616V16.736H11.6217C10.8947 18.1562 10.48 19.7628 10.48 21.4603C10.48 23.1578 10.8947 24.7644 11.6218 26.1846L15.208 23.459Z" fill="#FBBC05"/>
<path fill-rule="evenodd" clip-rule="evenodd" d="M21.2144 15.1245C22.7904 15.1245 24.2054 15.6553 25.3179 16.6977L28.3967 13.6805C26.5377 11.983 24.1079 10.9406 21.2144 10.9406C17.0182 10.9406 13.3881 13.298 11.6217 16.736L15.208 19.4616C16.0521 16.9751 18.4186 15.1245 21.2144 15.1245Z" fill="#EA4335"/>
</svg>
